<?xml version="1.0" encoding="utf-8"?>
<!-- Generator: Adobe Illustrator 21.0.0, SVG Export Plug-In . SVG Version: 6.00 Build 0)  -->
<svg version="1.1" xmlns="http://www.w3.org/2000/svg" xmlns:xlink="http://www.w3.org/1999/xlink" x="0px" y="0px"
	 viewBox="0 0 200 50" style="enable-background:new 0 0 200 50;" xml:space="preserve">
<style type="text/css">
	.st0{fill:#FFFFFF;stroke:#FFFFFF;stroke-width:0.5;stroke-miterlimit:10;}
</style>
<g id="图层_1">
	<g>
		<path class="st0" d="M18.1,4.1c0.1-0.5,0.4-0.8,0.9-0.8h4c0.5,0,0.7,0.2,0.6,0.8L18,44.7c-0.1,0.4-0.2,0.7-0.5,0.9l-2.3,2
			c-0.3,0.3-0.6,0.4-1,0.4h-10c-0.4,0-0.7-0.1-0.9-0.4l-1.7-2c-0.3-0.2-0.4-0.6-0.3-0.9l1.4-9.8C2.7,34.3,3,34,3.5,34h4
			c0.5,0,0.8,0.3,0.7,0.8l-0.9,6.3c-0.1,0.4,0,0.6,0.2,0.9c0.2,0.2,0.5,0.3,0.9,0.3h3.1c0.4,0,0.6-0.1,1-0.3
			c0.3-0.3,0.4-0.5,0.4-0.9L18.1,4.1z"/>
		<path class="st0" d="M33,47.2C32.9,47.8,32.6,48,32,48h-4c-0.5,0-0.7-0.2-0.6-0.8l6-43.1c0.1-0.5,0.4-0.8,0.9-0.8h4
			c0.5,0,0.8,0.2,0.7,0.8L33,47.2z"/>
		<path class="st0" d="M63.9,13.8c-0.1,0.5-0.4,0.8-0.9,0.8h-4.1c-0.5,0-0.7-0.2-0.6-0.8l0.5-3.6c0-0.4,0-0.6-0.2-0.9S58.1,9,57.7,9
			h-3.1c-0.4,0-0.6,0.1-0.9,0.3c-0.4,0.2-0.5,0.5-0.5,0.9l-1.6,11.5c-0.1,0.4-0.1,0.6,0.2,0.9c0.2,0.2,0.5,0.3,0.8,0.3h6.6
			c0.4,0,0.7,0.1,0.9,0.4l1.7,2c0.2,0.2,0.4,0.6,0.3,0.9l-2.6,18.4c-0.1,0.4-0.3,0.7-0.5,0.9l-2.3,2c-0.4,0.3-0.6,0.4-1.1,0.4h-10
			c-0.5,0-0.7-0.1-0.9-0.4l-1.8-2c-0.2-0.2-0.3-0.6-0.2-0.9l1-7c0.1-0.5,0.4-0.8,0.9-0.8h4.1c0.5,0,0.7,0.2,0.6,0.8l-0.5,3.5
			c-0.1,0.4,0,0.6,0.2,0.9c0.2,0.2,0.5,0.3,0.8,0.3H53c0.4,0,0.6-0.1,0.9-0.3c0.4-0.3,0.4-0.5,0.5-0.9l1.6-11.5
			c0.1-0.4,0-0.6-0.2-0.9c-0.2-0.2-0.4-0.3-0.8-0.3h-6.5c-0.5,0-0.7-0.1-0.9-0.4l-1.8-2c-0.2-0.2-0.2-0.6-0.2-0.9l2.6-18.4
			c0.1-0.4,0.2-0.7,0.5-0.9l2.3-2.1c0.4-0.2,0.6-0.4,1.1-0.4h10c0.4,0,0.7,0.1,0.9,0.4l1.7,2.1C64.8,6,65,6.3,64.9,6.7L63.9,13.8z"
			/>
		<path class="st0" d="M90.8,3.4c0.5,0,0.7,0.2,0.6,0.8l-5.7,40.5c-0.1,0.4-0.2,0.7-0.5,0.9l-2.3,2c-0.3,0.3-0.6,0.4-1,0.4h-10
			c-0.4,0-0.7-0.1-0.9-0.4l-1.7-2C69,45.4,68.9,45,69,44.7l5.7-40.5c0.1-0.5,0.4-0.8,0.9-0.8h4c0.5,0,0.8,0.2,0.7,0.8L75,41.2
			c-0.1,0.4,0,0.6,0.2,0.9c0.2,0.2,0.5,0.3,0.9,0.3h3.1c0.4,0,0.6-0.1,1-0.3c0.3-0.3,0.4-0.5,0.4-0.9l5.2-37.1
			c0.1-0.5,0.4-0.8,0.9-0.8H90.8z"/>
		<path class="st0" d="M114.7,3.4c0.4,0,0.7,0.1,0.9,0.4l1.7,2.1c0.2,0.2,0.4,0.5,0.3,0.9l-5.3,37.9c-0.1,0.4-0.2,0.7-0.5,0.9
			l-2.3,2c-0.3,0.3-0.6,0.4-1,0.4h-10c-0.4,0-0.7-0.1-0.9-0.4l-1.7-2c-0.3-0.2-0.4-0.6-0.3-0.9l5.3-37.9c0.1-0.4,0.2-0.7,0.5-0.9
			l2.3-2.1c0.3-0.2,0.6-0.4,1-0.4H114.7z M111.4,10.2c0-0.4,0-0.6-0.2-0.9C111,9.1,110.7,9,110.3,9h-3.1c-0.4,0-0.6,0.1-0.9,0.3
			c-0.3,0.2-0.4,0.5-0.4,0.9l-4.4,31c-0.1,0.4,0,0.6,0.2,0.9c0.2,0.2,0.5,0.3,0.9,0.3h3.1c0.4,0,0.6-0.1,1-0.3
			c0.3-0.3,0.4-0.5,0.4-0.9L111.4,10.2z"/>
		<path class="st0" d="M159.2,3.4c0.5,0,0.7,0.3,0.6,0.8L147,47.3c-0.1,0.5-0.5,0.7-0.9,0.7h-4.1c-0.5,0-0.8-0.2-0.8-0.7l-0.4-23.5
			c-0.1-0.7-0.7-0.7-0.9,0l-6.9,23.5c-0.2,0.5-0.5,0.7-1,0.7h-4.1c-0.5,0-0.7-0.2-0.7-0.7l-0.8-43.1c0-0.5,0.3-0.8,0.8-0.8h4
			c0.5,0,0.8,0.2,0.8,0.7l0.1,25.5c0.1,0.6,0.8,0.6,0.9,0l7.2-25.5c0.2-0.5,0.5-0.7,1-0.7h4.1c0.5,0,0.7,0.2,0.7,0.7l0.1,25.5
			c0.1,0.6,0.7,0.6,0.9,0l7.2-25.5c0.1-0.5,0.5-0.7,1-0.7H159.2z"/>
		<path class="st0" d="M178.3,47.2c-0.1,0.5-0.4,0.8-0.9,0.8h-14.5c-0.5,0-0.7-0.2-0.6-0.8l6-43.1c0.1-0.5,0.4-0.8,0.9-0.8h14.5
			c0.5,0,0.7,0.2,0.6,0.8l-0.6,4c-0.1,0.5-0.4,0.8-0.8,0.8H174c-0.5,0-0.8,0.3-0.9,0.8l-1.8,12.4c-0.1,0.5,0.1,0.8,0.6,0.8h4.1
			c0.5,0,0.8,0.2,0.6,0.8l-0.5,4c-0.1,0.5-0.4,0.8-0.9,0.8h-4.1c-0.5,0-0.8,0.2-0.9,0.8l-1.8,12.4c-0.1,0.5,0.1,0.8,0.6,0.8h8.9
			c0.5,0,0.8,0.3,0.7,0.8L178.3,47.2z"/>
		<path class="st0" d="M192.9,47.2c-0.1,0.5-0.4,0.8-0.9,0.8h-4c-0.5,0-0.7-0.2-0.6-0.8l6-43.1c0.1-0.5,0.4-0.8,0.9-0.8h4
			c0.5,0,0.8,0.2,0.7,0.8L192.9,47.2z"/>
	</g>
</g>
<g id="图层_2">
</g>
</svg>
