<svg width="36" height="48" viewBox="0 0 36 48" fill="none" xmlns="http://www.w3.org/2000/svg">
<path d="M4.21176 27.9133L4.20923 27.9098C2.1094 24.9936 1 21.57 1 18C1 8.62652 8.62652 1 18 1C27.3735 1 35 8.62652 35 18C35 21.5697 33.8908 24.9933 31.7873 27.9155C31.7872 27.9156 31.7872 27.9157 31.7871 27.9158L31.1578 28.7879L31.1578 28.7879L31.1527 28.795L18.3938 46.8073C18.2986 46.929 18.1523 47 18 47C17.8475 47 17.7013 46.929 17.6062 46.8073L4.68597 28.578L4.68415 28.5754L4.21176 27.9133Z" fill="#EA2323" stroke="#AE2C2C" stroke-width="2"/>
<path d="M11.594 17.316C12.0887 17.316 12.434 17.3953 12.63 17.554C12.8353 17.7127 12.938 17.9833 12.938 18.366C12.938 18.6833 12.8167 18.912 12.574 19.052C12.3407 19.1827 11.972 19.248 11.468 19.248H9.2V20.732L12.238 20.746C12.7607 20.746 13.134 20.8253 13.358 20.984C13.5913 21.1333 13.708 21.404 13.708 21.796C13.708 22.244 13.5727 22.5567 13.302 22.734C13.0407 22.9113 12.6393 23 12.098 23H7.562C7.01133 23 6.60533 22.8553 6.344 22.566C6.092 22.2673 5.966 21.7447 5.966 20.998V15.09C5.966 13.97 6.498 13.41 7.562 13.41H12.098C12.6393 13.41 13.0407 13.494 13.302 13.662C13.5727 13.83 13.708 14.1333 13.708 14.572C13.708 14.9827 13.5913 15.272 13.358 15.44C13.134 15.5987 12.7607 15.678 12.238 15.678H9.186V17.316H11.594ZM19.3483 19.234C19.3483 18.7113 19.1429 18.45 18.7323 18.45C18.5363 18.45 18.3729 18.534 18.2423 18.702C18.1209 18.8607 18.0509 19.0753 18.0323 19.346V21.502C18.0323 22.0713 17.9156 22.4633 17.6823 22.678C17.4489 22.8927 17.0383 23 16.4503 23C15.8996 23 15.5216 22.874 15.3163 22.622C15.1203 22.3607 15.0223 21.936 15.0223 21.348V17.904C15.0223 17.428 15.1483 17.0453 15.4003 16.756C15.6616 16.4667 16.0069 16.322 16.4363 16.322C16.7909 16.322 17.0896 16.3733 17.3323 16.476C17.5749 16.5787 17.7569 16.756 17.8783 17.008C18.6063 16.532 19.4929 16.294 20.5383 16.294C21.2009 16.294 21.6769 16.5553 21.9663 17.078C22.2649 17.6007 22.4143 18.4593 22.4143 19.654C22.4143 20.242 22.4003 20.7227 22.3723 21.096C22.3443 21.46 22.2976 21.7773 22.2323 22.048C22.1763 22.3093 22.0829 22.5053 21.9523 22.636C21.8216 22.7667 21.6676 22.86 21.4903 22.916C21.3223 22.972 21.1029 23 20.8323 23C20.3096 23 19.9316 22.902 19.6983 22.706C19.4743 22.51 19.3623 22.2207 19.3623 21.838L19.3483 19.234ZM31.1392 20.9C31.1392 21.656 31.0132 22.1973 30.7612 22.524C30.5092 22.8413 30.1219 23 29.5992 23C29.0019 23 28.5912 22.8133 28.3672 22.44C27.7605 22.8787 27.0279 23.098 26.1692 23.098C25.4412 23.098 24.8345 22.7993 24.3492 22.202C23.8639 21.5953 23.6212 20.7693 23.6212 19.724C23.6212 18.66 23.8592 17.8153 24.3352 17.19C24.8112 16.5553 25.4225 16.238 26.1692 16.238C26.8412 16.238 27.4712 16.4527 28.0592 16.882V15.09C28.0592 14.5207 28.1992 14.1007 28.4792 13.83C28.7592 13.55 29.1325 13.41 29.5992 13.41C30.1125 13.41 30.4952 13.5127 30.7472 13.718C31.0085 13.9233 31.1392 14.3387 31.1392 14.964V20.9ZM28.0872 20.984L28.0732 18.366C27.9145 18.1047 27.7092 17.974 27.4572 17.974C27.2985 17.974 27.1539 18.0627 27.0232 18.24C26.9019 18.4173 26.8085 18.6367 26.7432 18.898C26.6779 19.1593 26.6452 19.4347 26.6452 19.724C26.6452 20.1533 26.7152 20.536 26.8552 20.872C26.9952 21.208 27.1912 21.376 27.4432 21.376C27.4899 21.376 27.5365 21.3713 27.5832 21.362C27.6299 21.3527 27.6719 21.3433 27.7092 21.334C27.7465 21.3153 27.7839 21.2967 27.8212 21.278C27.8585 21.25 27.8912 21.222 27.9192 21.194C27.9472 21.166 27.9752 21.1333 28.0032 21.096C28.0312 21.0587 28.0592 21.0213 28.0872 20.984Z" fill="white"/>
</svg>
