<?xml version="1.0" encoding="utf-8"?>
<!-- Generator: Adobe Illustrator 17.0.0, SVG Export Plug-In . SVG Version: 6.00 Build 0)  -->
<!DOCTYPE svg PUBLIC "-//W3C//DTD SVG 1.1//EN" "http://www.w3.org/Graphics/SVG/1.1/DTD/svg11.dtd">
<svg version="1.1" id="图层_1" xmlns="http://www.w3.org/2000/svg" xmlns:xlink="http://www.w3.org/1999/xlink" x="0px" y="0px"
	 width="84px" height="32px" viewBox="0 0 84 32" enable-background="new 0 0 84 32" xml:space="preserve">
<g id="图层_2">
</g>
<g id="图层_1_1_" display="none">
	<g display="inline">
		<path fill="#FFFFFF" d="M20.86,2.47c0.208-0.156,0.468-0.26,0.728-0.26s0.468,0.052,0.676,0.208
			c0.156,0.104,0.26,0.312,0.312,0.52s-0.052,0.468-0.26,0.728c-0.884,1.247-1.767,2.807-2.651,4.574
			c-0.884,1.819-1.767,3.638-2.651,5.561s-1.819,3.846-2.755,5.769s-1.923,3.638-2.962,5.145s-2.079,2.755-3.222,3.69
			c-1.143,0.936-2.339,1.403-3.638,1.403c-0.676,0-1.299-0.104-1.871-0.364s-1.039-0.572-1.455-0.987
			c-0.416-0.416-0.676-0.884-0.884-1.403s-0.26-1.091-0.208-1.715c0.104-0.936,0.364-1.715,0.78-2.287s0.884-0.987,1.455-1.247
			c0.52-0.26,1.091-0.416,1.611-0.416s0.987,0.052,1.299,0.156s0.52,0.26,0.624,0.52c0.104,0.208,0.156,0.468,0.156,0.676
			s-0.104,0.364-0.312,0.52c-0.156,0.052-0.416,0.052-0.676-0.052c-0.468-0.208-0.884-0.208-1.247-0.052
			c-0.364,0.156-0.676,0.416-0.884,0.728c-0.208,0.364-0.364,0.728-0.468,1.195c-0.052,0.468-0.052,0.884,0.104,1.247
			c0.104,0.416,0.364,0.728,0.728,0.987c0.364,0.26,0.832,0.416,1.507,0.416c0.728,0,1.455-0.312,2.183-0.936
			s1.455-1.455,2.183-2.547c0.728-1.091,1.455-2.287,2.183-3.69c0.728-1.403,1.455-2.859,2.183-4.366
			c-0.468,0.416-0.936,0.78-1.351,0.936c-0.936,0.468-1.819,0.728-2.599,0.728s-1.455-0.156-2.027-0.468s-0.987-0.728-1.299-1.299
			c-0.312-0.572-0.416-1.195-0.416-1.871c0.052-0.676,0.26-1.351,0.728-2.079c0.416-0.676,1.091-1.351,2.027-1.923
			c0.78-0.468,1.663-0.987,2.703-1.507s2.131-1.091,3.222-1.663s2.183-1.195,3.222-1.871s1.923-1.403,2.703-2.183l0.208-0.312
			C20.548,2.678,20.704,2.574,20.86,2.47L20.86,2.47L20.86,2.47z M15.143,12.604c0.416-0.884,0.832-1.767,1.247-2.651
			c0.416-0.884,0.832-1.715,1.299-2.495c-0.78,0.572-1.559,1.039-2.339,1.507s-1.559,0.884-2.287,1.247s-1.403,0.728-2.027,1.039
			s-1.143,0.624-1.559,0.936c-0.676,0.468-1.091,0.936-1.247,1.455c-0.156,0.52-0.104,0.987,0.156,1.351
			c0.26,0.364,0.624,0.624,1.195,0.728c0.572,0.104,1.195,0,1.923-0.364c0.26-0.104,0.52-0.26,0.832-0.468
			c0.312-0.208,0.676-0.416,0.987-0.676c0.364-0.26,0.676-0.52,0.987-0.78C14.623,13.124,14.883,12.864,15.143,12.604z"/>
		<path fill="#FFFFFF" d="M21.848,20.504c0.156-0.208,0.312-0.312,0.572-0.312s0.468,0.052,0.676,0.156s0.364,0.26,0.468,0.416
			c0.104,0.208,0.052,0.364-0.104,0.572c-0.208,0.312-0.52,0.676-0.884,1.143c-0.364,0.468-0.884,0.987-1.507,1.559
			c-0.364,0.364-0.728,0.676-1.039,0.936c-0.312,0.26-0.624,0.468-0.936,0.624s-0.676,0.26-0.987,0.364
			c-0.364,0.052-0.728,0.104-1.143,0.104c-1.143,0-1.819-0.468-2.027-1.403c-0.208-0.936,0.156-2.235,1.091-3.794
			c0.208-0.364,0.416-0.728,0.676-1.143c0.208-0.416,0.468-0.832,0.728-1.247c0.26-0.416,0.468-0.78,0.676-1.143
			c0.208-0.364,0.416-0.676,0.572-0.936c0.208-0.312,0.468-0.52,0.78-0.624s0.624-0.104,0.884,0s0.468,0.26,0.624,0.468
			s0.104,0.468-0.052,0.78c-0.26,0.416-0.52,0.936-0.832,1.507c-0.312,0.572-0.624,1.091-0.832,1.559
			c-0.26,0.468-0.52,0.884-0.728,1.299c-0.208,0.416-0.416,0.78-0.572,1.143c-0.364,0.26-0.468,0.52-0.52,0.78
			s-0.052,0.416,0.104,0.52c0.104,0.104,0.26,0.156,0.52,0.104c0.208-0.052,0.468-0.156,0.728-0.312s0.52-0.364,0.78-0.572
			s0.468-0.416,0.676-0.624c0.364-0.416,0.676-0.728,0.936-0.987C21.276,21.18,21.536,20.868,21.848,20.504z M23.251,12.864
			c-0.104,0.208-0.26,0.364-0.468,0.572s-0.312,0.312-0.468,0.416c-0.312,0.208-0.624,0.312-0.936,0.364s-0.572,0.104-0.78,0.052
			s-0.364-0.156-0.468-0.364s0-0.416,0.208-0.78c0.052-0.156,0.156-0.312,0.312-0.52c0.156-0.208,0.26-0.416,0.364-0.624
			c0.208-0.26,0.416-0.416,0.78-0.52c0.312-0.052,0.624-0.052,0.884,0.052s0.468,0.26,0.624,0.468
			C23.459,12.241,23.459,12.501,23.251,12.864z"/>
		<path fill="#FFFFFF" d="M28.76,15.515c-0.312,0.468-0.676,0.884-0.987,1.195c-0.364,0.364-0.52,0.78-0.572,1.351
			c-0.052,0.26,0,0.572,0.104,0.936s0.26,0.728,0.364,1.143s0.208,0.884,0.26,1.351c0.052,0.468-0.052,1.039-0.26,1.611
			c0.26-0.156,0.468-0.26,0.676-0.468c0.52-0.364,0.936-0.78,1.195-1.091c0.26-0.364,0.572-0.728,0.832-1.091
			c0.156-0.208,0.312-0.312,0.572-0.312s0.468,0.052,0.676,0.156s0.312,0.26,0.416,0.416c0.104,0.208,0.052,0.364-0.052,0.572
			c-0.208,0.312-0.52,0.676-0.884,1.143c-0.364,0.468-0.884,0.987-1.507,1.559c-0.78,0.676-1.611,1.195-2.443,1.455
			c-0.884,0.26-1.663,0.416-2.339,0.468c-0.364,0.052-0.78,0.104-1.143,0.052c-0.364,0-0.728-0.104-1.091-0.26
			c-0.312-0.156-0.624-0.312-0.884-0.52s-0.468-0.468-0.572-0.78c-0.364-0.78-0.416-1.455-0.208-2.079s0.572-1.247,1.091-1.923
			c0.104-0.156,0.312-0.364,0.572-0.676s0.52-0.676,0.884-1.091c0.312-0.416,0.676-0.832,1.039-1.299
			c0.364-0.468,0.728-0.884,1.039-1.247c0.312-0.416,0.624-0.728,0.832-1.039c0.26-0.312,0.416-0.52,0.52-0.624
			c0.208-0.208,0.416-0.26,0.728-0.312c0.312,0,0.572,0.052,0.832,0.156s0.416,0.26,0.572,0.52
			C28.916,15.047,28.916,15.307,28.76,15.515z M24.55,24.143c0.26-0.208,0.468-0.468,0.624-0.78
			c0.104-0.364,0.208-0.728,0.208-1.143c0-0.416-0.052-0.832-0.156-1.247c-0.104-0.416-0.208-0.78-0.364-1.091
			c-0.624,0.78-1.143,1.299-1.455,1.715c-0.312,0.364-0.52,0.676-0.676,0.884s-0.156,0.468-0.104,0.728s0.208,0.52,0.416,0.728
			s0.416,0.364,0.676,0.416C23.979,24.351,24.238,24.299,24.55,24.143z"/>
		<path fill="#FFFFFF" d="M39.986,20.504c0.156-0.208,0.312-0.312,0.572-0.312s0.468,0.052,0.676,0.156s0.364,0.26,0.468,0.416
			c0.104,0.208,0.052,0.364-0.104,0.572c-0.104,0.156-0.26,0.312-0.468,0.624c-0.208,0.26-0.416,0.52-0.676,0.832
			s-0.52,0.624-0.832,0.936s-0.624,0.624-0.936,0.884c-0.624,0.572-1.195,0.936-1.663,1.143c-0.468,0.208-0.884,0.312-1.247,0.26
			c-0.364,0-0.676-0.156-0.884-0.364c-0.26-0.208-0.468-0.468-0.676-0.728c-0.208,0.104-0.364,0.26-0.572,0.364
			s-0.416,0.26-0.624,0.364s-0.52,0.208-0.78,0.26c-0.312,0.052-0.676,0.104-1.091,0.104c-1.143,0-1.819-0.468-2.027-1.403
			c-0.208-0.936,0.156-2.235,1.091-3.794c0.208-0.364,0.416-0.728,0.676-1.143c0.208-0.416,0.468-0.832,0.728-1.247
			c0.26-0.416,0.468-0.78,0.676-1.143c0.208-0.364,0.416-0.676,0.572-0.936c0.208-0.312,0.468-0.52,0.78-0.624
			c0.312-0.104,0.624-0.104,0.884,0s0.468,0.26,0.624,0.468c0.104,0.208,0.104,0.468-0.052,0.78c-0.26,0.416-0.52,0.936-0.832,1.507
			c-0.312,0.572-0.624,1.091-0.832,1.559c-0.26,0.468-0.52,0.884-0.728,1.299c-0.208,0.416-0.416,0.78-0.572,1.143
			c-0.156,0.364-0.26,0.624-0.312,0.884s-0.052,0.416,0.104,0.52c0.26,0.208,0.676,0.104,1.299-0.364s1.247-1.091,1.923-2.027
			c0.26-0.312,0.52-0.78,0.832-1.351S36.607,19,36.919,18.48c0.364-0.624,0.676-1.299,1.039-2.027
			c0.156-0.26,0.364-0.468,0.676-0.624c0.312-0.104,0.624-0.156,0.884-0.156c0.26,0.052,0.52,0.156,0.676,0.312
			c0.156,0.208,0.156,0.416-0.052,0.78c-0.208,0.364-0.416,0.832-0.728,1.351c-0.26,0.52-0.572,1.091-0.884,1.663
			s-0.572,1.091-0.832,1.559c-0.26,0.468-0.468,0.832-0.624,1.091c-0.156,0.26-0.208,0.416-0.156,0.52
			c0.052,0.104,0.104,0.156,0.26,0.156s0.312-0.052,0.572-0.208c0.208-0.104,0.416-0.26,0.624-0.468
			c0.364-0.416,0.676-0.728,0.936-0.987C39.415,21.18,39.674,20.868,39.986,20.504z"/>
		<path fill="#FFFFFF" d="M50.537,20.504c0.156-0.208,0.312-0.312,0.572-0.312s0.468,0.052,0.676,0.104
			c0.208,0.104,0.312,0.26,0.416,0.416c0.104,0.208,0.052,0.416-0.104,0.624c-0.208,0.26-0.468,0.572-0.78,0.936
			s-0.78,0.624-1.247,0.884c-0.468,0.26-0.987,0.468-1.507,0.572s-1.039,0.052-1.559-0.156c-0.676,0.728-1.403,1.299-2.235,1.767
			c-0.832,0.416-1.611,0.676-2.391,0.676c-0.572,0-1.091-0.156-1.559-0.416c-0.416-0.26-0.78-0.624-0.987-1.091
			c-0.208-0.468-0.312-0.987-0.312-1.611s0.104-1.299,0.364-2.027s0.624-1.351,1.091-2.027c0.468-0.624,0.987-1.195,1.559-1.663
			s1.195-0.832,1.819-1.091c0.624-0.26,1.247-0.416,1.871-0.416s1.143,0.156,1.559,0.416s0.78,0.624,0.987,1.091
			c0.208,0.468,0.312,1.039,0.312,1.663s-0.104,1.299-0.364,2.027c-0.052,0.208-0.156,0.364-0.208,0.52
			c-0.052,0.156-0.156,0.312-0.26,0.468c0.364,0,0.728-0.104,1.195-0.364C49.809,21.18,50.225,20.868,50.537,20.504z M46.483,20.66
			c0.364-0.78,0.468-1.455,0.26-2.027s-0.572-0.832-1.143-0.832c-0.312,0-0.624,0.052-0.936,0.208s-0.676,0.364-0.936,0.624
			c-0.312,0.26-0.624,0.572-0.884,0.884s-0.468,0.728-0.676,1.143c-0.364,0.78-0.416,1.455-0.26,2.027
			c0.208,0.572,0.572,0.832,1.143,0.832c0.312,0,0.624-0.052,0.936-0.208s0.676-0.364,0.936-0.624
			c0.312-0.26,0.572-0.572,0.832-0.936C46.067,21.388,46.327,21.024,46.483,20.66z"/>
		<path fill="#FFFFFF" d="M62.231,15.983c0.104-0.156,0.26-0.26,0.572-0.364s0.572-0.052,0.832,0
			c0.26,0.052,0.468,0.156,0.676,0.312c0.156,0.156,0.208,0.364,0.052,0.676c-0.052,0.156-0.208,0.364-0.364,0.728
			s-0.364,0.728-0.624,1.195c-0.26,0.468-0.52,0.936-0.832,1.507c-0.312,0.572-0.676,1.091-1.039,1.663
			c0.156,0.052,0.364,0.104,0.572,0.052c0.208,0,0.468-0.104,0.728-0.208c0.26-0.104,0.468-0.26,0.728-0.468
			s0.468-0.364,0.624-0.624c0.156-0.208,0.312-0.312,0.572-0.312s0.468,0.052,0.676,0.104c0.208,0.104,0.312,0.26,0.416,0.416
			c0.104,0.208,0.052,0.416-0.052,0.624c-0.208,0.26-0.468,0.572-0.832,0.936s-0.832,0.676-1.351,0.936
			c-0.52,0.26-1.039,0.416-1.611,0.52c-0.572,0.052-1.143-0.052-1.663-0.364c-0.624,0.728-1.299,1.351-2.027,1.819
			s-1.611,0.78-2.391,0.78c-0.52,0-0.936-0.052-1.247-0.208c-0.312-0.104-0.52-0.312-0.676-0.572
			c-0.364,0.26-0.78,0.416-1.143,0.572c-0.364,0.104-0.728,0.208-1.143,0.208c-0.884,0-1.455-0.208-1.819-0.624
			s-0.468-0.936-0.468-1.559c0.052-0.624,0.208-1.351,0.52-2.131s0.676-1.559,1.091-2.287c0.416-0.728,0.884-1.403,1.299-2.027
			c0.468-0.624,0.832-1.091,1.143-1.455c0.156-0.156,0.364-0.26,0.676-0.312c0.26-0.052,0.572,0,0.78,0.052
			c0.26,0.104,0.416,0.208,0.572,0.416c0.104,0.208,0.104,0.416-0.052,0.676c-0.104,0.208-0.312,0.468-0.624,0.884
			s-0.624,0.832-0.936,1.351c-0.364,0.52-0.676,1.039-0.987,1.559c-0.312,0.52-0.572,1.039-0.78,1.507s-0.26,0.832-0.26,1.091
			s0.208,0.416,0.52,0.416c0.26,0,0.52-0.104,0.78-0.26s0.572-0.416,0.832-0.78c0.208-0.572,0.468-1.195,0.832-1.819
			c0.364-0.624,0.676-1.247,1.039-1.819c0.364-0.572,0.728-1.091,1.039-1.611c0.312-0.52,0.624-0.884,0.832-1.195
			c0.156-0.208,0.364-0.312,0.624-0.364c0.26-0.052,0.52-0.104,0.78-0.052s0.468,0.156,0.624,0.312s0.208,0.364,0.052,0.676
			c-0.052,0.208-0.26,0.468-0.52,0.884c-0.26,0.416-0.624,0.884-0.936,1.351c-0.364,0.52-0.676,1.039-1.039,1.559
			c-0.364,0.52-0.624,1.039-0.832,1.507S56.102,22.689,56.05,23c-0.052,0.312,0.104,0.468,0.416,0.468
			c0.364,0,0.728-0.156,1.091-0.468c0.416-0.312,0.78-0.78,1.195-1.299c0.364-0.52,0.78-1.091,1.143-1.715s0.676-1.247,0.987-1.767
			c0.312-0.572,0.52-1.039,0.728-1.455C62.023,16.399,62.127,16.087,62.231,15.983z"/>
		<path fill="#FFFFFF" d="M71.118,20.452c-0.52,0.52-1.039,0.884-1.559,1.195c-0.52,0.312-0.987,0.52-1.455,0.676
			s-0.884,0.26-1.247,0.26c-0.364,0-0.728,0-0.987,0c0.052,0.364,0.208,0.676,0.468,0.884s0.572,0.416,0.987,0.468
			s0.832,0.052,1.351-0.052c0.52-0.104,1.039-0.312,1.611-0.676c0.26-0.156,0.572-0.364,0.832-0.572s0.572-0.468,0.832-0.728
			s0.52-0.52,0.78-0.728c0.26-0.26,0.416-0.468,0.572-0.676s0.312-0.312,0.572-0.312s0.468,0.052,0.676,0.104
			c0.208,0.104,0.312,0.26,0.416,0.416c0.104,0.208,0.052,0.416-0.052,0.624c-0.104,0.208-0.312,0.416-0.572,0.728
			c-0.26,0.26-0.52,0.52-0.78,0.832s-0.572,0.572-0.936,0.884c-0.312,0.312-0.676,0.572-0.987,0.832
			c-0.676,0.52-1.403,0.884-2.235,1.091c-0.78,0.208-1.559,0.312-2.287,0.26c-0.728-0.052-1.351-0.208-1.923-0.52
			S64.259,24.714,64,24.195c-0.312-0.728-0.416-1.455-0.312-2.235s0.312-1.455,0.728-2.131c0.416-0.78,0.936-1.403,1.507-2.027
			c0.572-0.572,1.195-1.039,1.819-1.403s1.247-0.572,1.923-0.676c0.676-0.104,1.247-0.052,1.819,0.156
			c0.52,0.208,0.832,0.52,0.936,0.936s0.156,0.832,0.052,1.299c-0.104,0.468-0.312,0.884-0.572,1.299
			C71.69,19.881,71.378,20.193,71.118,20.452z M66.285,20.816c0.52,0,1.039-0.052,1.611-0.26s1.091-0.52,1.611-0.987
			c0.572-0.52,0.884-1.039,0.936-1.455c0.104-0.468-0.104-0.676-0.572-0.676c-0.208,0-0.468,0.104-0.78,0.26
			s-0.624,0.416-0.936,0.728s-0.624,0.676-0.936,1.091S66.545,20.297,66.285,20.816L66.285,20.816z"/>
		<path fill="#FFFFFF" d="M79.018,20.504c0.156-0.208,0.312-0.312,0.572-0.312s0.468,0.052,0.676,0.156s0.364,0.26,0.468,0.416
			c0.104,0.208,0.052,0.364-0.104,0.572c-0.208,0.312-0.52,0.676-0.884,1.143c-0.364,0.468-0.884,0.987-1.507,1.559
			c-0.364,0.364-0.728,0.676-1.039,0.936c-0.312,0.26-0.624,0.468-0.936,0.624s-0.676,0.26-0.987,0.364
			c-0.364,0.052-0.728,0.104-1.143,0.104c-1.143,0-1.819-0.468-2.027-1.403c-0.208-0.936,0.156-2.235,1.091-3.794
			c0.208-0.364,0.416-0.728,0.676-1.143c0.208-0.416,0.468-0.832,0.728-1.247c0.26-0.416,0.468-0.78,0.676-1.143
			c0.208-0.364,0.416-0.676,0.572-0.936c0.208-0.312,0.468-0.52,0.78-0.624s0.624-0.104,0.884,0s0.468,0.26,0.624,0.468
			s0.104,0.468-0.052,0.78c-0.26,0.416-0.52,0.936-0.832,1.507c-0.312,0.572-0.624,1.091-0.832,1.559
			c-0.26,0.468-0.52,0.884-0.728,1.299c-0.26,0.416-0.416,0.78-0.572,1.143c-0.156,0.364-0.26,0.624-0.312,0.884
			c-0.052,0.26-0.052,0.416,0.104,0.52c0.104,0.104,0.26,0.156,0.52,0.104c0.208-0.052,0.468-0.156,0.728-0.312
			c0.26-0.156,0.52-0.364,0.78-0.572s0.468-0.416,0.676-0.624c0.364-0.416,0.676-0.728,0.936-0.987
			C78.499,21.18,78.759,20.868,79.018,20.504z M80.422,12.864c-0.104,0.208-0.26,0.364-0.468,0.572s-0.312,0.312-0.468,0.416
			c-0.312,0.208-0.624,0.312-0.936,0.364s-0.572,0.104-0.78,0.052s-0.364-0.156-0.468-0.364c-0.104-0.208,0-0.416,0.208-0.78
			c0.052-0.156,0.156-0.312,0.312-0.52c0.156-0.208,0.26-0.416,0.364-0.624c0.208-0.26,0.416-0.416,0.78-0.52
			c0.312-0.052,0.624-0.052,0.884,0.052s0.468,0.26,0.624,0.468C80.63,12.241,80.63,12.501,80.422,12.864z"/>
	</g>
	<g display="inline">
		<path fill="#FFFFFF" d="M68.78,7.771c-0.468,0-0.936,0-1.195-0.052c-0.156,0-0.26-0.104-0.26-0.26V2.626
			c0-0.156,0.104-0.26,0.208-0.26c0.26-0.052,0.676-0.052,1.143-0.052c1.143,0,2.131,0.312,2.131,1.403v0.104
			c0,0.52-0.26,0.936-0.78,1.143c0.52,0.156,0.832,0.624,0.832,1.195v0.104C70.911,7.459,69.923,7.771,68.78,7.771z M70.235,3.665
			c0-0.676-0.572-0.832-1.455-0.832c-0.26,0-0.52,0-0.728,0v1.819h1.143c0.832,0,1.091-0.416,1.091-0.884V3.665H70.235z
			 M70.287,6.108c0-0.468-0.26-0.936-1.091-0.936h-1.143v2.027c0.26,0,0.52,0.052,0.78,0.052c0.884,0,1.455-0.208,1.455-0.987
			L70.287,6.108L70.287,6.108z"/>
		<path fill="#FFFFFF" d="M74.809,7.719c-0.26,0.052-0.987,0.052-1.403,0.052c-1.039,0-1.559-0.364-1.559-1.351V3.613
			c0-0.987,0.52-1.351,1.559-1.351c0.416,0,1.091,0,1.403,0.052c0.052,0,0.052,0.052,0.052,0.104v0.364
			c0,0.052-0.052,0.104-0.104,0.104h-1.403c-0.78,0-0.884,0.208-0.884,0.78v0.936h2.235c0.104,0,0.156,0.052,0.156,0.156v0.26
			c0,0.104-0.052,0.156-0.156,0.156h-2.183V6.42c0,0.572,0.104,0.78,0.884,0.78h1.403c0.052,0,0.104,0.052,0.104,0.104v0.364
			C74.913,7.667,74.861,7.719,74.809,7.719z"/>
		<path fill="#FFFFFF" d="M79.174,2.885h-1.403v4.678c0,0.052-0.052,0.156-0.156,0.156h-0.416c-0.052,0-0.156-0.052-0.156-0.156
			V2.885H75.64c-0.104,0-0.156-0.052-0.156-0.104V2.47c0-0.052,0.052-0.156,0.156-0.156h3.482c0.104,0,0.156,0.052,0.156,0.156
			v0.312C79.33,2.833,79.278,2.885,79.174,2.885z"/>
		<path fill="#FFFFFF" d="M83.852,7.719h-0.416c-0.052,0-0.104-0.052-0.104-0.104l-0.468-1.663h-1.871l-0.468,1.663
			c0,0.052-0.052,0.104-0.156,0.104h-0.416c-0.052,0-0.104-0.052-0.104-0.104V7.563l1.351-4.73c0.104-0.468,0.468-0.572,0.728-0.572
			c0.26,0,0.624,0.104,0.728,0.572l1.351,4.73v0.052C84.008,7.667,83.956,7.719,83.852,7.719z M82.033,2.989
			c0-0.104-0.052-0.156-0.156-0.156s-0.104,0.052-0.156,0.156L81.045,5.38h1.611L82.033,2.989z"/>
	</g>
</g>
<g>
	<linearGradient id="SVGID_1_" gradientUnits="userSpaceOnUse" x1="0.8867" y1="16.1889" x2="7.1623" y2="17.4088">
		<stop  offset="0.5169" style="stop-color:#FFFFFF"/>
		<stop  offset="1" style="stop-color:#808080"/>
	</linearGradient>
	<path fill="url(#SVGID_1_)" d="M0.2,19.791c0-0.396,0.325-0.731,0.732-0.731h0.569c0.386,0,0.732,0.335,0.732,0.731v0.291
		c0,0.856,0.163,1.294,0.406,1.543c0.183,0.189,0.468,0.209,0.732,0.209c0.731,0,1.118-0.543,1.118-1.753v-9.49
		c0-0.417,0.325-0.75,0.732-0.75H5.79c0.386,0,0.711,0.334,0.711,0.75v9.49c0,2.503-1.016,3.817-3.13,3.817S0.2,22.587,0.2,20.083
		V19.791z"/>
	<linearGradient id="SVGID_2_" gradientUnits="userSpaceOnUse" x1="10.8337" y1="16.4501" x2="15.1724" y2="17.2934">
		<stop  offset="0.5169" style="stop-color:#FFFFFF"/>
		<stop  offset="1" style="stop-color:#808080"/>
	</linearGradient>
	<path fill="url(#SVGID_2_)" d="M14.02,23.15c0,0.417-0.346,0.75-0.732,0.75h-0.569c-0.407,0-0.732-0.334-0.732-0.75V10.593
		c0-0.417,0.325-0.75,0.732-0.75h0.569c0.386,0,0.732,0.334,0.732,0.75V23.15z"/>
	<linearGradient id="SVGID_3_" gradientUnits="userSpaceOnUse" x1="18.8538" y1="16.0862" x2="26.7993" y2="17.6306">
		<stop  offset="0.5169" style="stop-color:#FFFFFF"/>
		<stop  offset="1" style="stop-color:#808080"/>
	</linearGradient>
	<path fill="url(#SVGID_3_)" d="M19.465,19.541c0-0.417,0.325-0.75,0.731-0.75h0.569c0.386,0,0.731,0.334,0.731,0.75v0.272
		c0,1.002,0.183,1.48,0.467,1.731c0.224,0.23,0.569,0.272,0.854,0.272c0.854,0,1.321-0.376,1.321-1.481
		c0-0.98-0.935-1.752-1.931-2.544v0.022c-1.341-1.085-2.744-2.211-2.744-4.276c0-2.356,1.199-3.713,3.354-3.713
		c2.195,0,3.354,1.439,3.354,4.088v0.291c0,0.418-0.325,0.751-0.732,0.751H24.87c-0.407,0-0.732-0.334-0.732-0.751v-0.291
		c0-1.377-0.427-2.002-1.321-2.002c-0.854,0-1.321,0.479-1.321,1.564c0,1.063,0.996,1.877,1.992,2.67h-0.02
		c1.341,1.064,2.703,2.128,2.703,4.15c0,2.336-1.199,3.587-3.354,3.587c-2.236,0-3.354-1.335-3.354-4.067v-0.274H19.465z"/>
	<linearGradient id="SVGID_4_" gradientUnits="userSpaceOnUse" x1="30.4472" y1="15.7885" x2="38.7872" y2="17.4096">
		<stop  offset="0.5169" style="stop-color:#FFFFFF"/>
		<stop  offset="1" style="stop-color:#808080"/>
	</linearGradient>
	<path fill="url(#SVGID_4_)" d="M31.476,10.572c0-0.418,0.325-0.751,0.711-0.751h0.569c0.406,0,0.731,0.334,0.731,0.751v9.491
		c0,1.105,0.325,1.752,1.321,1.752c1.037,0,1.321-0.751,1.321-1.752v-9.491c0-0.418,0.325-0.751,0.711-0.751h0.569
		c0.406,0,0.731,0.334,0.731,0.751v9.491c0,2.335-0.976,3.816-3.333,3.816c-2.439,0-3.333-1.605-3.333-3.816v-9.491H31.476z"/>
	<linearGradient id="SVGID_5_" gradientUnits="userSpaceOnUse" x1="43.4217" y1="16.1082" x2="51.2298" y2="17.6259">
		<stop  offset="0.5169" style="stop-color:#FFFFFF"/>
		<stop  offset="1" style="stop-color:#808080"/>
	</linearGradient>
	<path fill="url(#SVGID_5_)" d="M43.994,13.909c0-2.628,1.118-4.067,3.333-4.067c2.235,0,3.333,1.418,3.333,4.067v5.903
		c0,1.647-0.427,2.606-1.057,3.253c-0.671,0.667-1.524,0.834-2.276,0.834c-0.731,0-1.585-0.167-2.256-0.834
		c-0.63-0.646-1.077-1.605-1.077-3.253V13.909z M46.026,19.813c0,1.376,0.427,2.024,1.301,2.024c0.854,0,1.301-0.605,1.301-2.024
		V13.91c0-1.398-0.427-2.002-1.301-2.002c-0.895,0-1.301,0.646-1.301,2.002V19.813z"/>
	<linearGradient id="SVGID_6_" gradientUnits="userSpaceOnUse" x1="54.4922" y1="15.5242" x2="64.5485" y2="17.479">
		<stop  offset="0.5169" style="stop-color:#FFFFFF"/>
		<stop  offset="1" style="stop-color:#808080"/>
	</linearGradient>
	<path fill="url(#SVGID_6_)" d="M62.407,16.746l0.914-6.278c0.041-0.355,0.387-0.626,0.731-0.626h0.59
		c0.447,0,0.793,0.396,0.731,0.855l-1.951,12.578c-0.061,0.334-0.386,0.625-0.731,0.625h-0.468c-0.325,0-0.65-0.272-0.711-0.605
		l-1.077-6.654l-1.098,6.654c-0.062,0.334-0.386,0.605-0.712,0.605H58.18c-0.346,0-0.65-0.291-0.712-0.625l-1.991-12.578
		c-0.062-0.459,0.243-0.855,0.711-0.855h0.59c0.345,0,0.67,0.271,0.731,0.626l0.935,6.32l1.057-6.341
		c0.062-0.334,0.387-0.604,0.712-0.604h0.447c0.325,0,0.65,0.271,0.711,0.604L62.407,16.746z"/>
	<linearGradient id="SVGID_7_" gradientUnits="userSpaceOnUse" x1="69.4515" y1="16.0908" x2="77.4715" y2="17.6497">
		<stop  offset="0.5169" style="stop-color:#FFFFFF"/>
		<stop  offset="1" style="stop-color:#808080"/>
	</linearGradient>
	<path fill="url(#SVGID_7_)" d="M75.657,9.843c0.406,0,0.731,0.334,0.731,0.75v0.563c0,0.418-0.325,0.751-0.731,0.751h-3.11v3.921
		h2.562c0.406,0,0.731,0.334,0.731,0.75v0.563c0,0.417-0.325,0.75-0.731,0.75h-2.562v3.943h3.11c0.406,0,0.731,0.334,0.731,0.75
		v0.563c0,0.417-0.325,0.75-0.731,0.75h-4.391c-0.406,0-0.731-0.334-0.731-0.75V10.593c0-0.417,0.325-0.75,0.731-0.75H75.657z"/>
	<linearGradient id="SVGID_8_" gradientUnits="userSpaceOnUse" x1="80.5596" y1="16.4503" x2="84.8964" y2="17.2932">
		<stop  offset="0.5169" style="stop-color:#FFFFFF"/>
		<stop  offset="1" style="stop-color:#808080"/>
	</linearGradient>
	<path fill="url(#SVGID_8_)" d="M83.744,23.15c0,0.417-0.346,0.75-0.731,0.75h-0.569c-0.406,0-0.731-0.334-0.731-0.75V10.593
		c0-0.417,0.325-0.75,0.731-0.75h0.569c0.386,0,0.731,0.334,0.731,0.75V23.15z"/>
</g>
</svg>
