<?xml version="1.0" encoding="utf-8"?>
<!-- Generator: Adobe Illustrator 17.1.0, SVG Export Plug-In . SVG Version: 6.00 Build 0)  -->
<!DOCTYPE svg PUBLIC "-//W3C//DTD SVG 1.1//EN" "http://www.w3.org/Graphics/SVG/1.1/DTD/svg11.dtd">
<svg version="1.1" id="图层_1" xmlns="http://www.w3.org/2000/svg" xmlns:xlink="http://www.w3.org/1999/xlink" x="0px" y="0px"
	 viewBox="0 0 800 400" enable-background="new 0 0 800 400" xml:space="preserve">
<g>
	<g>
		<path fill="#5C5C5C" d="M108.4,102l-22,103.2c-3.2,15.5-5.5,25.4-6.8,29.7c-1.3,4.4-3.6,8.3-6.8,11.9c-3.4,3.6-7.4,6.1-12.1,7.4
			c-4.7,1.3-11.5,2.1-20.4,2.1H20.2l5.7-27.1c2.5,0.2,4.2,0.2,5.1,0.2c2.8,0,5.3-0.8,7.2-2.1c1.9-1.3,3.2-3.2,4-5.1
			c0.8-2.1,1.7-6.1,2.8-11.7L68,101.8h40.3V102z"/>
		<path fill="#5C5C5C" d="M164,102l-32.7,154.4H91.1L123.9,102L164,102L164,102z"/>
		<path fill="#5C5C5C" d="M255.2,148.8h-37.3l2.5-11.4c1.1-5.3,1.3-8.7,0.8-10.2c-0.6-1.5-2.1-2.3-4.4-2.3c-2.5,0-4.5,0.9-6.1,3
			c-1.7,1.9-2.8,4.9-3.8,8.9c-1.1,5.1-1.1,9.1-0.4,11.7c0.8,2.6,4,5.7,9.3,9.5c15.5,10.6,25,19.3,28.2,26.1c3.2,6.8,3.2,17.8,0,32.9
			c-2.3,11-5.3,19.1-9.1,24.2c-3.6,5.3-9.7,9.7-17.8,13.1c-8.1,3.6-17,5.3-26.9,5.3c-10.8,0-19.5-2.1-26.3-6.1
			c-6.8-4-10.6-9.3-11.5-15.5c-0.9-6.2-0.4-15.1,2.1-26.9l2.1-10h37.3l-4,18.7c-1.3,5.9-1.5,9.5-0.8,11.2s2.5,2.5,5.1,2.5
			c2.6,0,4.9-1.1,6.6-3.2s3-5.3,4-9.3c1.9-9.1,1.9-15,0-17.8c-1.9-2.8-7.2-7.4-15.9-14c-8.5-6.6-14.2-11.4-16.8-14.4
			c-2.6-3-4.4-7.2-5.5-12.3c-0.9-5.3-0.6-11.9,1.1-20.3c2.5-11.7,5.9-20.4,10-25.9c4.2-5.5,10-9.7,17.4-12.9
			c7.4-3,15.9-4.5,25.4-4.5c10.4,0,18.9,1.7,25.6,5.1c6.6,3.4,10.6,7.6,11.9,12.7c1.3,5.1,0.6,13.8-1.9,26.1L255.2,148.8z"/>
		<path fill="#5C5C5C" d="M372.4,102l-22,103.2c-2.5,11.7-4.5,19.9-6.4,24.6c-1.9,4.7-5.1,9.7-9.8,14.6s-10.6,8.7-17.2,11.4
			c-6.6,2.6-14.2,3.8-22.5,3.8c-9.3,0-17-1.5-23.5-4.5s-10.8-7-13.2-11.9c-2.5-4.9-3.4-10-2.8-15.5c0.6-5.5,2.6-16.8,6.2-34.3
			l19.5-91.4h40.1l-24.6,115.8c-1.5,6.8-1.9,11-1.7,12.9c0.4,1.9,1.7,2.8,3.8,2.8c2.5,0,4.4-0.9,5.5-3s2.6-7,4.2-14.6L332.1,102
			L372.4,102L372.4,102z"/>
		<path fill="#5C5C5C" d="M460.4,192.3c-3.2,15.5-6.1,26.5-8.1,32.9c-2.1,6.4-5.7,12.3-10.6,17.6c-4.9,5.3-11,9.5-18.2,12.3
			c-7.2,2.8-15.1,4.4-23.8,4.4c-8.3,0-15.3-1.3-21.4-4c-6.1-2.6-10.4-6.8-13.2-12.1c-2.8-5.5-4-11.4-3.4-17.6
			c0.6-6.4,2.6-17.4,5.9-33.3l5.7-26.5c3.2-15.5,6.1-26.5,8.1-32.9c2.1-6.4,5.7-12.3,10.6-17.6c4.9-5.3,11-9.5,18.2-12.3
			c7.2-2.8,15.1-4.4,23.8-4.4c8.3,0,15.3,1.3,21.4,4c6.1,2.6,10.4,6.8,13.2,12.1c2.8,5.5,4,11.4,3.4,17.6
			c-0.6,6.4-2.6,17.4-5.9,33.3L460.4,192.3z M431.1,141.6c1.5-7.2,2.1-11.7,1.7-13.8c-0.4-2.1-1.7-3-4.4-3c-2.1,0-3.8,0.8-5.3,2.5
			c-1.5,1.7-3,6.4-4.7,14.4L403,213.7c-1.9,8.9-2.6,14.6-2.5,16.7c0.2,2.1,1.7,3.2,4.4,3.2c2.6,0,4.7-1.1,6.1-3.6
			c1.3-2.5,2.8-8.1,4.7-17.2L431.1,141.6z"/>
		<path fill="#5C5C5C" d="M645.9,102l-50.7,154.4H545c0.4-23.7,2.1-50.7,5.1-81c-4.4,13.1-13.8,39.9-28.4,81h-49.8L486.7,102h39
			l-7.2,53.9l-7,52c7.2-26.9,18.4-62.3,33.7-106h41.6c-0.4,4.5-2.5,21.6-6.4,50.9l-8.1,58.7c10.2-37.3,21.8-74,34.4-109.6L645.9,102
			L645.9,102z"/>
		<path fill="#5C5C5C" d="M653.6,102h67l-6.6,30.9h-26.9l-6.2,29.3h25.2l-6.2,29.3h-25l-7.2,33.9h29.5l-6.6,30.9h-69.7L653.6,102z"
			/>
		<path fill="#5C5C5C" d="M775,102l-32.7,154.4h-40.1L734.8,102L775,102L775,102z"/>
	</g>
	<g>
		<path fill="#5C5C5C" d="M31.3,313.4L26,278.6h5.9l3.6,27.6l16.3-27.6h3.6l4,27.6l15.5-27.6h5.3l-20.3,34.8h-4.4l-4-26.3
			l-15.5,26.3H31.3z"/>
		<path fill="#5C5C5C" d="M83.8,313.4l7.4-34.8h33.5l-0.9,4.7H95.9l-2.1,9.7h17l-0.9,4.5h-17l-2.3,11.2h28l-1.1,4.7H83.8z"/>
		<path fill="#5C5C5C" d="M131.4,313.4l7.4-34.8h28c2.6,0,4.4,0.6,5.3,1.5c0.9,1.1,1.1,2.8,0.6,5.1l-0.9,4c-0.4,1.9-1.1,3.2-2.3,4.2
			c-1.1,0.9-2.6,1.5-4.7,1.7c1.9,0.2,3.2,0.9,4,2.1c0.8,1.1,0.9,2.6,0.6,4.7l-0.9,4.5c-0.6,2.3-1.7,4-3.4,5.1
			c-1.9,1.1-4.4,1.7-7.6,1.7h-25.9V313.4z M163.1,304.5l0.6-2.8c0.4-1.5,0.4-2.6-0.2-3.2c-0.4-0.6-1.3-0.9-2.8-0.9h-20.1l-2.5,11.2
			h20.1c1.5,0,2.5-0.4,3.2-0.9C162.3,307,162.7,306,163.1,304.5z M165.9,289.8l0.8-3.4c0.2-1.1,0.2-1.9-0.2-2.5
			c-0.4-0.4-1.3-0.6-2.6-0.6h-20.1l-2.1,9.7h20.1c1.3,0,2.3-0.2,3-0.8C165.3,291.7,165.7,290.9,165.9,289.8z"/>
		<path fill="#5C5C5C" d="M244.3,283.1H220l-5.3,25.4H239l1.9-8.7l5.5,1.1l-0.9,4.2c-0.8,3.2-1.7,5.3-3,6.6
			c-1.3,1.1-3.6,1.7-6.8,1.7H216c-3.2,0-5.1-0.6-6.1-1.7c-0.9-1.1-0.9-3.4-0.4-6.4l4-18.4c0.8-3.2,1.7-5.3,3-6.4
			c1.3-1.1,3.6-1.7,6.8-1.7h19.5c3.2,0,5.1,0.6,6.1,1.7c0.9,1.1,0.9,3.4,0.4,6.6l-0.8,3.2l-6.1,1.1L244.3,283.1z"/>
		<path fill="#5C5C5C" d="M252.2,313.4l26.5-34.8h6.2l11.9,34.8h-6.4l-2.6-8.5h-23.7l-6.2,8.5H252.2z M267.7,300.4h18.7l-5.7-17.8
			L267.7,300.4z"/>
		<path fill="#5C5C5C" d="M308.2,313.4l7.4-34.8h3.6l21.2,23.3c0.6,0.6,0.9,1.1,1.5,1.9c0.6,0.8,0.9,1.5,1.5,2.5
			c0-1.1,0.2-2.3,0.4-3.6c0.2-1.1,0.6-2.8,0.9-5.1l4-19.1h5.3l-7.4,34.8h-3.2L321.8,289c-0.2-0.2-0.2-0.4-0.6-0.6
			c-1.1-1.1-1.9-2.3-2.3-3.4c-0.2,1.1-0.2,2.3-0.4,3.4c-0.2,1.1-0.4,2.6-0.8,4.2l-4.4,20.6h-5.3V313.4z"/>
		<path fill="#5C5C5C" d="M416.7,278.4c3.2,0,5.9,0.2,7.9,0.6c2.1,0.4,3.6,1.1,4.9,2.1c1.9,1.5,3.2,3.4,4,6.1
			c0.8,2.6,0.8,5.3,0.2,8.5c-0.8,3.2-1.9,6.2-3.8,8.7c-1.9,2.6-4,4.7-6.6,6.2c-1.7,0.9-3.6,1.5-5.7,2.1c-2.3,0.4-4.9,0.8-8.1,0.8
			H390l7.4-34.8h19.3V278.4z M414.8,283.1h-12.5l-5.3,25.4h12.5c5.7,0,9.8-0.9,12.7-3c2.8-1.9,4.5-5.3,5.7-9.8
			c0.9-4.4,0.4-7.6-1.5-9.5C424.2,284.3,420.5,283.1,414.8,283.1z"/>
		<path fill="#5C5C5C" d="M449.8,286.7c0.8-3.2,1.7-5.3,3-6.4s3.6-1.7,6.8-1.7h24c3.2,0,5.1,0.6,6.1,1.7c0.9,1.1,0.9,3.4,0.4,6.4
			l-4,18.4c-0.8,3.2-1.7,5.3-3,6.6c-1.3,1.1-3.6,1.7-6.8,1.7h-23.8c-3.2,0-5.3-0.6-6.1-1.7c-0.9-1.1-0.9-3.4-0.4-6.4L449.8,286.7z
			 M451.1,308.5h29l5.3-25.4h-29L451.1,308.5z"/>
		<path fill="#5C5C5C" d="M538.4,284.7c0,0.8-0.2,1.3-0.2,2.1c-0.2,0.8-0.4,1.7-0.6,3l-4.9,23.5h-4.9l7.4-34.8h4.7l12.1,22.7
			l20.6-22.7h5.3l-7.4,34.8h-5.3l4.9-23.5c0-0.4,0.2-1.1,0.6-2.3c0.4-1.3,0.6-2.3,0.8-2.8c-0.6,0.9-1.1,1.7-1.7,2.3
			c-0.4,0.6-0.9,1.1-1.1,1.5l-17.4,19.5h-1.5l-9.8-18.9c0,0,0-0.2-0.2-0.2C538.9,287.3,538.6,286,538.4,284.7z"/>
		<path fill="#5C5C5C" d="M593.8,286.7c0.8-3.2,1.7-5.3,3-6.4c1.3-1.1,3.6-1.7,6.8-1.7h24c3.2,0,5.1,0.6,6.1,1.7s0.9,3.4,0.4,6.4
			l-4,18.4c-0.8,3.2-1.7,5.3-3,6.6c-1.3,1.1-3.6,1.7-6.8,1.7h-24c-3.2,0-5.3-0.6-6.1-1.7c-0.9-1.1-0.9-3.4-0.4-6.4L593.8,286.7z
			 M595,308.5h29l5.3-25.4h-29L595,308.5z"/>
		<path fill="#5C5C5C" d="M646.3,313.4l7.4-34.8h28c2.6,0,4.4,0.6,5.3,1.5c0.9,1.1,1.1,2.8,0.6,5.1l-1.7,7.8c-0.6,2.3-1.5,4-2.8,5.1
			s-3.4,1.5-6.1,1.5H672l13.1,13.6h-8.7L665,299.6h-10l-2.8,13.6h-5.9V313.4z M678.4,283h-20.1l-2.6,12.3h20.1
			c1.5,0,2.5-0.2,3.2-0.8c0.6-0.6,1.1-1.5,1.3-2.8l1.1-5.1c0.2-1.3,0.2-2.3-0.2-2.8C680.9,283.3,679.9,283,678.4,283z"/>
		<path fill="#5C5C5C" d="M697.7,313.4l7.4-34.8h33.5l-0.9,4.7h-27.8l-2.1,9.7h17l-0.9,4.5h-17l-2.3,11.2h28l-0.9,4.7H697.7z"/>
	</g>
</g>
</svg>
