<?xml version="1.0" encoding="utf-8"?>
<!-- Generator: Adobe Illustrator 17.1.0, SVG Export Plug-In . SVG Version: 6.00 Build 0)  -->
<!DOCTYPE svg PUBLIC "-//W3C//DTD SVG 1.1//EN" "http://www.w3.org/Graphics/SVG/1.1/DTD/svg11.dtd">
<svg version="1.1" xmlns="http://www.w3.org/2000/svg" xmlns:xlink="http://www.w3.org/1999/xlink" x="0px" y="0px"
	 viewBox="0 0 1920 1080" enable-background="new 0 0 1920 1080" xml:space="preserve">
<g id="图层_1">
	<g id="图层_1_1_" display="none">
	</g>
	<g id="BG" display="none">
	</g>
	<g id="图层_7">
		<g>
			<path fill="#5C5C5C" d="M1176.8,636.3l1.3-7.5h15.1l-0.9,5.1c-0.2,1.3-1.4,2.4-2.7,2.4H1176.8z M1178.2,625.4h24.7l-0.3,2h-1.6
				l-1.5,8.5c-0.2,1.4-1.6,2.5-2.9,2.5h-6.3l0.4-2h1.8c0.4,0,0.8-0.3,0.9-0.7l1.5-8.3h-17L1178.2,625.4z M1179.9,615.6h9l0.3-1.8
				h6.7l-0.3,1.8h9l-0.4,2h-7l4.6,4.8h1.5l-0.3,1.7h-7.6l-4-4.2l-5.5,4.2h-7.6l0.3-1.7h1.6l6.3-4.8h-7L1179.9,615.6z M1183,634.4
				h2.7c0.4,0,0.7-0.3,0.8-0.7l0.5-3h-3.4L1183,634.4z"/>
			<path fill="#5C5C5C" d="M1208.4,633.4l-1.9,5.1h-4.5l1.9-5.1H1208.4z M1218.5,613.7l-0.4,2.5h0.8l-0.4,2h-0.8l-2.2,12.4h0.8
				l-0.4,2H1203l0.4-2h0.8l2.2-12.4h-0.8l0.4-2h0.8l0.4-2.5h4.6l-0.4,2.5h2.2l0.4-2.5H1218.5z M1208.8,630.6h2.2l0.5-2.7h-2.2
				L1208.8,630.6z M1209.6,625.9h2.2l0.5-2.9h-2.2L1209.6,625.9z M1214.5,633.4l0.1,5.1h-4.5l-0.1-5.1H1214.5z M1210.5,621h2.2
				l0.5-2.8h-2.2L1210.5,621z M1230,616.4h-5.8l-0.8,4.4h6.5l-0.4,2h-0.9l-2.8,15.7h-4.4l2.8-15.7h-1.2l-2.8,15.7h-4.8l4.2-24.1
				h10.6L1230,616.4z"/>
			<path fill="#5C5C5C" d="M1239.1,635.8l-1.2,1.2h-4.4l3.7-3.6l-1.9-2.4l0.7-3.9h-0.9l-2,11.2h-4.7l3.7-21.2h13.4l-0.2-3.5h4.7
				l0.2,3.5h6.2l-0.3,2h-5.8l0.2,4.7l1-1.4h4l-0.4,2h-0.7l-3.7,5.4l0.3,6.6h1.9l-0.4,2h-6.1l-0.1-2.1l-1.4,2.1h-4.3l0.9-1.4h-1.6
				L1239.1,635.8z M1241.7,633.3l1.3,1.8l3.2-4.7l-0.5-11.2h-9.2l-1.1,6.2h0.9l0.3-1.5h3.8l-0.3,1.5h4.9l-1,5.6L1241.7,633.3z
				 M1237,620.8h8.4l-0.4,2h-8.4L1237,620.8z M1239.8,627.2l-0.5,2.9l0.6,0.8l0.8-0.8l0.5-2.9H1239.8z M1251.4,616.5l-0.1-2.6h4.7
				l0.1,2.6H1251.4z"/>
			<path fill="#5C5C5C" d="M1279.8,627.1c-0.2,1.4-1.6,2.5-2.9,2.5h-1l-1.2,6.8h4.7l-0.4,2h-10.9l1.5-8.8h-3.1l-5.1,8.8h-6.4
				l5.1-8.8h-3.1l1.6-9h8l0.5-2.6h-9.3l0.3-2h9.3l0.4-2.2h6.2l-0.4,2.2h9.3l-0.4,2h-9.3l-0.5,2.6h8L1279.8,627.1z M1274.4,622.6
				h-9.8l-0.9,5h9.1c0.4,0,0.8-0.3,0.9-0.8L1274.4,622.6z"/>
			<path fill="#5C5C5C" d="M1283.3,625.7h9.2l-0.3,1.9h-9.2L1283.3,625.7z"/>
			<path fill="#5C5C5C" d="M1292.4,638.4l1.9-6.6h5.3l-2,6.6H1292.4z M1312.1,613.7l-0.4,2.3h9.2l-0.4,2h-9.2l-0.5,2.9h8.2l-1.2,7
				c-0.2,1.4-1.5,2.5-2.9,2.5h-20.1l1.7-9.5h8.2l1.3-7.2H1312.1z M1299.7,638.4l0.4-6.6h5.3l-0.4,6.6H1299.7z M1312.5,622.9h-10.2
				l-1,5.5h9.4c0.4,0,0.8-0.3,0.9-0.7L1312.5,622.9z M1305.7,638.4l0.4-6.6h5.3l-0.4,6.6H1305.7z M1311.7,638.4l0.4-6.6h5.3
				l-0.4,6.6H1311.7z"/>
			<path fill="#5C5C5C" d="M1328.6,613.7l-2.3,13.2l0.1,11.6h-3.3V635l-1.3,3.5h-3.3l4.2-11.6l2.3-13.2H1328.6z M1324.2,615.6
				l-2,11.2h-1.6l2-11.2H1324.2z M1330.3,615.6l-2,11.2h-1.6l2-11.2H1330.3z M1326.9,638.5l1.4-6.4h3.5l-1.5,6.4H1326.9z
				 M1336.2,613.7l-0.8,2h4.7l-4.6,12.3c-0.8,2-1.8,2.9-3.5,2.9h-3l0.4-2h1.5c0.5,0,1-0.2,1.2-1l0.4-1h-2.4l-0.3-2.8h3l0.2,1.6
				l3-8.1h-1.2l-0.8,2h-3.6l2.4-6L1336.2,613.7L1336.2,613.7z M1333.4,620.5l0.3,2.8h-3l-0.3-2.8H1333.4z M1331.6,638.5l0.8-6.4h3.5
				l-0.8,6.4H1331.6z M1335.7,638.5l0.8-6.4h3.5l-0.8,6.4H1335.7z M1345.5,613.7l-1.9,5h3.1l-0.4,2h-0.8l-1,10.2h-3.1l0.8-8.5
				l-3.2,8.5h-3.1l3.8-10.2h-0.8l0.4-2h1.2l1.9-5H1345.5z M1339.8,638.5l0.8-6.4h3.5l-0.8,6.4H1339.8z M1347.3,615l-0.4,3.2h-2
				l0.4-3.2H1347.3z"/>
			<path fill="#5C5C5C" d="M1356.8,613.7l-2.3,6.2h0.9l-3.3,18.5h-5.5l2.3-13.1h-2l4.4-11.6L1356.8,613.7L1356.8,613.7z
				 M1359.6,625.1l-2.9,12h-3.8l2.8-12H1359.6z M1364,613.7l-0.9,2.3h10.2l-2.3,6.4h-5.3l1.6-4.4h-4.9l-1.6,4.4h-5.3l3.1-8.7H1364z
				 M1366.2,622.7l-2.3,13.3c-0.2,1.4-1.7,2.5-3.2,2.5h-3.7l0.4-2h0.5c0.4,0,0.9-0.3,0.9-0.7l2.3-13L1366.2,622.7L1366.2,622.7z
				 M1371,625.1l-1.4,12h-3.8l1.4-12H1371z"/>
			<path fill="#5C5C5C" d="M1374.7,617.6h1.6l1.5-3.9h4.9l-1.5,3.9h4l-3.3,18.8c-0.2,1.1-1.3,2-2.5,2h-8.4L1374.7,617.6z
				 M1378.6,629.2h-1.5l-1.3,7.2h0.8c0.4,0,0.8-0.3,0.8-0.7L1378.6,629.2z M1377.5,627.2h1.5l1.3-7.6h-1.5L1377.5,627.2z
				 M1389.7,623.8l-0.3,9.2h-4.8l0.3-9.2H1389.7z M1392.4,613.7l-0.6,1.8h7.7l-3.5,19.9c-0.3,1.6-1.9,3-3.6,3h-5l0.4-2h2.2
				c0.4,0,0.8-0.3,0.9-0.7l3.2-18.2h-3l-1.6,4.7h-4.7l2.8-8.5H1392.4z"/>
			<path fill="#5C5C5C" d="M1398.2,630.7l4.2-2.7l0.8-4.8l-0.3-1.3l-3.7,2.4l0.5-2.7l2.7-1.8l-1.3-6.2h5.7l0.8,2.9l3-1.9l-0.5,2.7
				l-1.9,1.3l0.7,2.7l-2.6,14.6c-0.2,1.4-1.7,2.5-3.2,2.5h-4.6l0.4-2h1.2c0.5,0,0.9-0.3,1-0.7l0.9-4.9l-4.2,2.7L1398.2,630.7z
				 M1412,614.5h13.4l-0.4,2h-3.7l-1.5,8.6h3.9l-0.4,2h-3.9l-1.6,9.2h4.1l-0.4,2h-14.2l0.4-2h4.1l1.6-9.2h-3.9l0.4-2h3.9l1.5-8.6
				h-3.7L1412,614.5z"/>
			<path fill="#5C5C5C" d="M1423,638.4l1.9-6.5h5.3l-2,6.5H1423z M1426.9,616.7h1.8l0.5-3h6l-0.5,3h1.4l-0.3,2h-1.4l-0.7,3.8
				l1.5-0.3l-0.4,2l-1.5,0.3l-0.7,3.9c-0.2,1.4-1.5,2.5-2.9,2.5h-5l0.3-2h0.8c0.4,0,0.8-0.3,0.8-0.7l0.4-2.5l-1.8,0.3l0.3-2l1.8-0.3
				l0.9-5h-1.8L1426.9,616.7z M1430.4,638.4l0.4-6.5h5.3l-0.4,6.5H1430.4z M1436.9,616.2h1.5l0.7-2.4h5.8l-0.7,2.4h6.8l-2.3,12.8
				h0.8l-0.4,2h-6.6l2.3-12.8h-1.2l-1.9,6.5l1.2,0.8l-0.4,2.2l-1.4-0.9l-1.2,4.1h-5.8l2.1-7.4l-0.7-0.5l0.4-2.2l1,0.7l0.9-3.2h-1.3
				L1436.9,616.2z M1436.4,638.4l0.4-6.5h5.3l-0.4,6.5H1436.4z M1442.4,638.4l0.4-6.5h5.3l-0.4,6.5H1442.4z"/>
		</g>
	</g>
	<g id="jisuowei_x5F_font" display="none">
		<g display="inline">
			<g>
				<path fill="#7C7171" d="M528.6,322.3l-18.9,107.2c-2.8,16.1-4.8,26.4-6,31c-1.1,4.6-3.4,8.7-6.7,12.4c-3.3,3.7-7.4,6.3-12.3,7.7
					c-4.8,1.4-11.9,2.1-21.1,2.1h-20.9l4.9-28c2.5,0.2,4.3,0.3,5.4,0.3c3,0,5.4-0.7,7.4-2.2s3.3-3.2,3.9-5.4
					c0.6-2.1,1.5-6.2,2.6-12.3l19.9-112.9L528.6,322.3L528.6,322.3z"/>
				<path fill="#7C7171" d="M586.4,322.3l-28.3,160.4h-41.7l28.3-160.4H586.4z"/>
				<path fill="#7C7171" d="M683,370.9h-38.7l2.1-11.9c1-5.5,1.1-9.1,0.4-10.6c-0.7-1.5-2.2-2.3-4.6-2.3c-2.5,0-4.6,1-6.2,3.1
					c-1.6,2-2.8,5.2-3.6,9.3c-0.9,5.4-0.9,9.4,0,12.1s4.3,6,10.1,9.8c16.6,11,26.7,20.1,30.3,27.1c3.6,7.1,4,18.5,1.2,34.2
					c-2,11.4-4.8,19.9-8.5,25.3c-3.6,5.4-9.6,10-17.9,13.6c-8.3,3.7-17.6,5.5-27.7,5.5c-11.2,0-20.3-2.1-27.5-6.3
					c-7.1-4.2-11.4-9.6-12.7-16.1s-0.9-15.8,1.2-27.8l1.9-10.5h38.7l-3.4,19.5c-1.1,6-1.2,9.9-0.4,11.6s2.6,2.6,5.3,2.6
					s5-1.1,6.8-3.3c1.7-2.2,3-5.4,3.7-9.7c1.7-9.4,1.5-15.6-0.6-18.5s-7.8-7.8-17-14.6c-9.2-6.9-15.2-11.9-18-15s-4.9-7.4-6.1-12.9
					c-1.2-5.5-1.1-12.5,0.4-21c2.2-12.3,5.3-21.3,9.5-27c4.1-5.7,10-10.1,17.6-13.3c7.6-3.2,16.3-4.8,26.2-4.8
					c10.8,0,19.8,1.8,26.8,5.3s11.3,7.9,12.8,13.2c1.5,5.3,1.2,14.4-1.1,27.1L683,370.9z"/>
				<path fill="#7C7171" d="M802.9,322.3L784,429.5c-2.1,12.2-4,20.7-5.7,25.6s-4.9,10-9.7,15.2s-10.6,9.1-17.5,11.8
					c-6.8,2.7-14.6,4-23.2,4c-9.6,0-17.8-1.6-24.5-4.8s-11.5-7.3-14.3-12.4c-2.7-5.1-3.9-10.5-3.6-16.1c0.3-5.6,2.1-17.5,5.3-35.6
					l16.7-94.9h41.7L728,442.6c-1.2,7-1.6,11.5-1.2,13.4c0.4,1.9,1.8,2.9,4.1,2.9c2.6,0,4.5-1.1,5.7-3.2c1.1-2.1,2.4-7.2,3.8-15.2
					l20.8-118.2H802.9z"/>
				<path fill="#7C7171" d="M897.8,416.3c-2.8,16.1-5.2,27.5-7.2,34.2c-1.9,6.7-5.4,12.8-10.4,18.4c-5,5.5-11.1,9.8-18.5,12.8
					c-7.3,3-15.5,4.5-24.6,4.5c-8.6,0-16.1-1.4-22.4-4.2c-6.3-2.8-11.1-7-14.3-12.6s-4.6-11.7-4.2-18.3c0.4-6.6,2-18.2,4.9-34.7
					l4.8-27.4c2.8-16.1,5.2-27.5,7.2-34.2c1.9-6.7,5.4-12.8,10.4-18.4c5-5.5,11.1-9.8,18.5-12.8c7.3-3,15.5-4.5,24.6-4.5
					c8.6,0,16.1,1.4,22.4,4.2c6.3,2.8,11.1,7,14.3,12.6s4.6,11.7,4.2,18.3c-0.4,6.6-2,18.2-4.9,34.7L897.8,416.3z M865.4,363.6
					c1.3-7.5,1.7-12.2,1.3-14.3c-0.5-2.1-2-3.1-4.6-3.1c-2.2,0-4,0.8-5.4,2.5c-1.5,1.7-2.9,6.7-4.4,14.9l-13.2,74.9
					c-1.6,9.3-2.3,15.1-1.9,17.2c0.4,2.2,1.9,3.3,4.7,3.3s4.9-1.3,6.1-3.8c1.2-2.5,2.7-8.5,4.4-17.9L865.4,363.6z"/>
				<path fill="#7C7171" d="M1087,322.3l-46.9,160.4H988c-0.4-24.6,0.3-52.7,2.2-84.1c-4,13.5-12.9,41.5-26.5,84.1H912l9.6-160.4
					h40.5l-5.5,56l-5.3,54.1c6.5-28,16.8-64.7,30.9-110.1h43.3c-0.3,4.7-1.8,22.3-4.8,52.9l-6.2,61c9.2-38.8,19.8-76.8,31.7-113.9
					H1087z"/>
				<path fill="#7C7171" d="M1095.2,322.3h69.6l-5.7,32.1h-27.8l-5.4,30.4h26.1l-5.4,30.5h-26.1l-6.2,35.3h30.6l-5.7,32.1h-72.3
					L1095.2,322.3z"/>
				<path fill="#7C7171" d="M1221.2,322.3L1193,482.8h-41.7l28.3-160.4h41.6V322.3z"/>
			</g>
			<g>
				<path d="M528.6,322.3l-18.9,107.2c-2.8,16.1-4.8,26.4-6,31c-1.1,4.6-3.4,8.7-6.7,12.4c-3.3,3.7-7.4,6.3-12.3,7.7
					c-4.8,1.4-11.9,2.1-21.1,2.1h-20.9l4.9-28c2.5,0.2,4.3,0.3,5.4,0.3c3,0,5.4-0.7,7.4-2.2s3.3-3.2,3.9-5.4
					c0.6-2.1,1.5-6.2,2.6-12.3l19.9-112.9L528.6,322.3L528.6,322.3z"/>
				<path d="M586.4,322.3l-28.3,160.4h-41.7l28.3-160.4H586.4z"/>
				<path d="M683,370.9h-38.7l2.1-11.9c1-5.5,1.1-9.1,0.4-10.6c-0.7-1.5-2.2-2.3-4.6-2.3c-2.5,0-4.6,1-6.2,3.1
					c-1.6,2-2.8,5.2-3.6,9.3c-0.9,5.4-0.9,9.4,0,12.1s4.3,6,10.1,9.8c16.6,11,26.7,20.1,30.3,27.1c3.6,7.1,4,18.5,1.2,34.2
					c-2,11.4-4.8,19.9-8.5,25.3c-3.6,5.4-9.6,10-17.9,13.6c-8.3,3.7-17.6,5.5-27.7,5.5c-11.2,0-20.3-2.1-27.5-6.3
					c-7.1-4.2-11.4-9.6-12.7-16.1s-0.9-15.8,1.2-27.8l1.9-10.5h38.7l-3.4,19.5c-1.1,6-1.2,9.9-0.4,11.6s2.6,2.6,5.3,2.6
					s5-1.1,6.8-3.3c1.7-2.2,3-5.4,3.7-9.7c1.7-9.4,1.5-15.6-0.6-18.5s-7.8-7.8-17-14.6c-9.2-6.9-15.2-11.9-18-15s-4.9-7.4-6.1-12.9
					c-1.2-5.5-1.1-12.5,0.4-21c2.2-12.3,5.3-21.3,9.5-27c4.1-5.7,10-10.1,17.6-13.3c7.6-3.2,16.3-4.8,26.2-4.8
					c10.8,0,19.8,1.8,26.8,5.3s11.3,7.9,12.8,13.2c1.5,5.3,1.2,14.4-1.1,27.1L683,370.9z"/>
				<path d="M802.9,322.3L784,429.5c-2.1,12.2-4,20.7-5.7,25.6s-4.9,10-9.7,15.2s-10.6,9.1-17.5,11.8c-6.8,2.7-14.6,4-23.2,4
					c-9.6,0-17.8-1.6-24.5-4.8s-11.5-7.3-14.3-12.4c-2.7-5.1-3.9-10.5-3.6-16.1c0.3-5.6,2.1-17.5,5.3-35.6l16.7-94.9h41.7L728,442.6
					c-1.2,7-1.6,11.5-1.2,13.4c0.4,1.9,1.8,2.9,4.1,2.9c2.6,0,4.5-1.1,5.7-3.2c1.1-2.1,2.4-7.2,3.8-15.2l20.8-118.2H802.9z"/>
				<path d="M897.8,416.3c-2.8,16.1-5.2,27.5-7.2,34.2c-1.9,6.7-5.4,12.8-10.4,18.4c-5,5.5-11.1,9.8-18.5,12.8
					c-7.3,3-15.5,4.5-24.6,4.5c-8.6,0-16.1-1.4-22.4-4.2c-6.3-2.8-11.1-7-14.3-12.6s-4.6-11.7-4.2-18.3c0.4-6.6,2-18.2,4.9-34.7
					l4.8-27.4c2.8-16.1,5.2-27.5,7.2-34.2c1.9-6.7,5.4-12.8,10.4-18.4c5-5.5,11.1-9.8,18.5-12.8c7.3-3,15.5-4.5,24.6-4.5
					c8.6,0,16.1,1.4,22.4,4.2c6.3,2.8,11.1,7,14.3,12.6s4.6,11.7,4.2,18.3c-0.4,6.6-2,18.2-4.9,34.7L897.8,416.3z M865.4,363.6
					c1.3-7.5,1.7-12.2,1.3-14.3c-0.5-2.1-2-3.1-4.6-3.1c-2.2,0-4,0.8-5.4,2.5c-1.5,1.7-2.9,6.7-4.4,14.9l-13.2,74.9
					c-1.6,9.3-2.3,15.1-1.9,17.2c0.4,2.2,1.9,3.3,4.7,3.3s4.9-1.3,6.1-3.8c1.2-2.5,2.7-8.5,4.4-17.9L865.4,363.6z"/>
				<path d="M1087,322.3l-46.9,160.4H988c-0.4-24.6,0.3-52.7,2.2-84.1c-4,13.5-12.9,41.5-26.5,84.1H912l9.6-160.4h40.5l-5.5,56
					l-5.3,54.1c6.5-28,16.8-64.7,30.9-110.1h43.3c-0.3,4.7-1.8,22.3-4.8,52.9l-6.2,61c9.2-38.8,19.8-76.8,31.7-113.9H1087z"/>
				<path d="M1095.2,322.3h69.6l-5.7,32.1h-27.8l-5.4,30.4h26.1l-5.4,30.5h-26.1l-6.2,35.3h30.6l-5.7,32.1h-72.3L1095.2,322.3z"/>
				<path d="M1221.2,322.3L1193,482.8h-41.7l28.3-160.4h41.6V322.3z"/>
			</g>
		</g>
	</g>
	<g id="图层_6">
		<g>
			<path fill="#FAFAFA" d="M648.1,379.1l-18.8,106.6c-2.8,16-4.8,26.2-5.9,30.8c-1.1,4.6-3.4,8.7-6.7,12.4s-7.4,6.2-12.2,7.6
				c-4.8,1.4-11.8,2.1-21,2.1h-20.8l4.9-27.9c2.5,0.2,4.2,0.3,5.4,0.3c3,0,5.4-0.7,7.4-2.2c2-1.4,3.3-3.2,3.9-5.3
				c0.6-2.1,1.5-6.2,2.5-12.2l19.8-112.2L648.1,379.1L648.1,379.1z"/>
			<path fill="#FAFAFA" d="M705.6,379.1l-28.1,159.4H636l28.1-159.4H705.6z"/>
			<path fill="#FAFAFA" d="M801.6,427.3h-38.5l2.1-11.8c1-5.5,1.1-9,0.4-10.5c-0.7-1.5-2.2-2.3-4.5-2.3c-2.5,0-4.6,1-6.2,3.1
				c-1.6,2-2.8,5.1-3.6,9.3c-0.9,5.3-0.9,9.3,0,12s4.2,5.9,10,9.7c16.5,11,26.6,19.9,30.1,27c3.6,7,4,18.4,1.2,34
				c-2,11.4-4.8,19.7-8.4,25.1c-3.6,5.4-9.5,9.9-17.8,13.5s-17.4,5.5-27.6,5.5c-11.1,0-20.2-2.1-27.3-6.3s-11.3-9.6-12.6-16.1
				s-0.9-15.7,1.2-27.7l1.8-10.4h38.5l-3.4,19.4c-1.1,6-1.2,9.8-0.4,11.5s2.6,2.6,5.3,2.6c2.8,0,5-1.1,6.7-3.2
				c1.7-2.2,3-5.4,3.7-9.7c1.7-9.4,1.5-15.5-0.6-18.4s-7.7-7.7-16.8-14.5s-15.1-11.8-17.9-14.9c-2.8-3.1-4.8-7.4-6.1-12.8
				c-1.2-5.4-1.1-12.4,0.4-20.9c2.2-12.2,5.3-21.1,9.4-26.8c4.1-5.6,9.9-10.1,17.5-13.2c7.5-3.2,16.2-4.8,26.1-4.8
				c10.8,0,19.6,1.7,26.6,5.2s11.2,7.9,12.7,13.1c1.5,5.3,1.2,14.3-1.1,26.9L801.6,427.3z"/>
			<path fill="#FAFAFA" d="M920.8,379.1L902,485.6c-2.1,12.1-4,20.6-5.7,25.5s-4.9,9.9-9.6,15.1c-4.8,5.2-10.6,9.1-17.4,11.7
				c-6.8,2.7-14.5,4-23.1,4c-9.5,0-17.6-1.6-24.4-4.7c-6.7-3.2-11.5-7.3-14.2-12.3c-2.7-5.1-3.9-10.4-3.6-16
				c0.3-5.6,2.1-17.4,5.3-35.4l16.6-94.3h41.5l-21.1,119.6c-1.2,7-1.6,11.4-1.2,13.3c0.4,1.9,1.8,2.9,4.1,2.9c2.6,0,4.5-1.1,5.6-3.2
				c1.1-2.1,2.4-7.2,3.8-15.1l20.7-117.5h41.5V379.1z"/>
			<path fill="#FAFAFA" d="M1015.1,472.4c-2.8,16-5.2,27.4-7.1,34c-1.9,6.7-5.4,12.8-10.3,18.3c-4.9,5.5-11.1,9.7-18.3,12.7
				c-7.3,3-15.4,4.4-24.4,4.4c-8.5,0-16-1.4-22.3-4.2s-11-7-14.2-12.6s-4.5-11.7-4.2-18.2c0.4-6.6,2-18.1,4.9-34.5L924,445
				c2.8-16,5.2-27.4,7.1-34c1.9-6.7,5.4-12.8,10.3-18.3c4.9-5.5,11.1-9.7,18.3-12.7c7.3-3,15.4-4.4,24.4-4.4c8.5,0,16,1.4,22.3,4.2
				c6.3,2.8,11,7,14.2,12.6s4.5,11.7,4.2,18.2c-0.4,6.6-2,18.1-4.9,34.5L1015.1,472.4z M982.9,420c1.3-7.4,1.7-12.2,1.3-14.2
				c-0.5-2.1-2-3.1-4.5-3.1c-2.2,0-4,0.8-5.4,2.5s-2.9,6.6-4.3,14.8l-13.1,74.4c-1.6,9.3-2.3,15-1.9,17.1c0.4,2.2,1.9,3.2,4.7,3.2
				s4.8-1.2,6.1-3.7c1.2-2.5,2.7-8.4,4.3-17.8L982.9,420z"/>
			<path fill="#FAFAFA" d="M1203.1,379.1l-46.6,159.4h-51.8c-0.4-24.5,0.3-52.4,2.2-83.6c-4,13.4-12.8,41.3-26.3,83.6h-51.5
				l9.6-159.4h40.3l-5.4,55.6l-5.2,53.8c6.4-27.8,16.7-64.3,30.8-109.4h43.1c-0.2,4.7-1.8,22.2-4.8,52.6l-6.1,60.7
				c9.2-38.6,19.7-76.3,31.5-113.2h40.2V379.1z"/>
			<path fill="#FAFAFA" d="M1211.3,379.1h69.1l-5.6,31.9h-27.7l-5.3,30.2h25.9l-5.3,30.3h-25.9l-6.2,35.1h30.4l-5.6,31.9h-71.9
				L1211.3,379.1z"/>
			<path fill="#FAFAFA" d="M1336.5,379.1l-28.1,159.4H1267l28.1-159.4H1336.5z"/>
		</g>
	</g>
</g>
<g id="图层_2">
	<g>
		<path fill="#5C5C5C" d="M515.5,248.8l-16.1,55h-17.8c-0.1-8.4,0.1-18.1,0.8-28.8c-1.4,4.6-4.4,14.2-9.1,28.8h-17.7l3.3-55h13.9
			l-1.9,19.2l-1.8,18.5c2.2-9.6,5.8-22.2,10.6-37.7h14.8c-0.1,1.6-0.6,7.7-1.6,18.1l-2.1,20.9c3.2-13.3,6.8-26.3,10.9-39H515.5z"/>
		<path fill="#5C5C5C" d="M518.3,248.8h23.8l-1.9,11h-9.5l-1.8,10.4h8.9l-1.8,10.5H527l-2.1,12.1h10.5l-1.9,11h-24.8L518.3,248.8z"
			/>
		<path fill="#5C5C5C" d="M561.5,248.8l-7.8,44h8.7l-1.9,11h-23l9.7-55H561.5z"/>
		<path fill="#5C5C5C" d="M601.8,272.7h-14.3l1.7-9.6c0.5-2.8,0.6-4.5,0.5-5.2c-0.2-0.7-0.8-1-1.8-1c-1.2,0-2,0.4-2.5,1.3
			c-0.5,0.8-0.9,2.6-1.4,5.4l-4.5,25.5c-0.5,2.7-0.6,4.4-0.4,5.2c0.2,0.8,0.8,1.2,1.9,1.2c1.1,0,1.8-0.4,2.3-1.2s1-2.7,1.5-5.8
			l1.2-6.9h14.3l-0.4,2.1c-1,5.7-2.1,9.7-3.3,12.1c-1.2,2.4-3.4,4.5-6.4,6.3c-3.1,1.8-6.6,2.7-10.6,2.7c-4.2,0-7.5-0.8-10-2.3
			c-2.4-1.5-3.9-3.6-4.3-6.3c-0.4-2.7-0.1-6.7,0.8-12.1l2.8-16.1c0.7-4,1.4-6.9,2-8.9c0.6-2,1.8-3.9,3.4-5.7
			c1.7-1.8,3.8-3.3,6.4-4.3c2.6-1.1,5.4-1.6,8.5-1.6c4.2,0,7.5,0.8,10,2.4c2.5,1.6,3.9,3.7,4.3,6.1c0.4,2.4,0.2,6.2-0.7,11.3
			L601.8,272.7z"/>
		<path fill="#5C5C5C" d="M638.1,281c-1,5.5-1.8,9.4-2.5,11.7c-0.7,2.3-1.9,4.4-3.6,6.3c-1.7,1.9-3.8,3.4-6.3,4.4
			c-2.5,1-5.3,1.5-8.4,1.5c-2.9,0-5.5-0.5-7.7-1.4c-2.2-1-3.8-2.4-4.9-4.3c-1.1-1.9-1.6-4-1.4-6.3c0.1-2.3,0.7-6.2,1.7-11.9l1.7-9.4
			c1-5.5,1.8-9.4,2.5-11.7c0.7-2.3,1.9-4.4,3.6-6.3c1.7-1.9,3.8-3.4,6.3-4.4s5.3-1.5,8.4-1.5c2.9,0,5.5,0.5,7.7,1.4
			c2.2,1,3.8,2.4,4.9,4.3c1.1,1.9,1.6,4,1.4,6.3c-0.1,2.3-0.7,6.2-1.7,11.9L638.1,281z M627,262.9c0.5-2.6,0.6-4.2,0.4-4.9
			c-0.2-0.7-0.7-1.1-1.6-1.1c-0.7,0-1.4,0.3-1.9,0.9c-0.5,0.6-1,2.3-1.5,5.1l-4.5,25.7c-0.6,3.2-0.8,5.2-0.7,5.9
			c0.1,0.7,0.7,1.1,1.6,1.1c1,0,1.7-0.4,2.1-1.3s0.9-2.9,1.5-6.1L627,262.9z"/>
		<path fill="#5C5C5C" d="M693.2,248.8l-9.7,55H671l6.5-37.1L666,303.8h-8.9l1.1-36.3l-6.4,36.3h-12.5l9.7-55h18.5
			c0,3.3-0.2,7.2-0.4,11.7l-0.4,14l7.8-25.7H693.2z"/>
		<path fill="#5C5C5C" d="M698.9,248.8h23.8l-1.9,11h-9.5l-1.8,10.4h8.9l-1.8,10.5h-8.9l-2.1,12.1H716l-1.9,11h-24.8L698.9,248.8z"
			/>
		<path fill="#5C5C5C" d="M768.9,248.8l-1.9,11h-8.5l-7.8,44h-14.3l7.8-44h-8.5l1.9-11H768.9z"/>
		<path fill="#5C5C5C" d="M799.1,281c-1,5.5-1.8,9.4-2.5,11.7c-0.7,2.3-1.9,4.4-3.6,6.3c-1.7,1.9-3.8,3.4-6.3,4.4
			c-2.5,1-5.3,1.5-8.4,1.5c-2.9,0-5.5-0.5-7.7-1.4c-2.2-1-3.8-2.4-4.9-4.3c-1.1-1.9-1.6-4-1.4-6.3c0.1-2.3,0.7-6.2,1.7-11.9l1.7-9.4
			c1-5.5,1.8-9.4,2.5-11.7c0.7-2.3,1.9-4.4,3.6-6.3c1.7-1.9,3.8-3.4,6.3-4.4s5.3-1.5,8.4-1.5c2.9,0,5.5,0.5,7.7,1.4
			c2.2,1,3.8,2.4,4.9,4.3c1.1,1.9,1.6,4,1.4,6.3c-0.1,2.3-0.7,6.2-1.7,11.9L799.1,281z M788,262.9c0.5-2.6,0.6-4.2,0.4-4.9
			c-0.2-0.7-0.7-1.1-1.6-1.1c-0.7,0-1.4,0.3-1.9,0.9c-0.5,0.6-1,2.3-1.5,5.1l-4.5,25.7c-0.6,3.2-0.8,5.2-0.7,5.9
			c0.1,0.7,0.7,1.1,1.6,1.1c1,0,1.7-0.4,2.1-1.3s0.9-2.9,1.5-6.1L788,262.9z"/>
	</g>
</g>
</svg>
